<?xml version="1.0" encoding="UTF-8" standalone="no"?>
<!-- Created with Inkscape (http://www.inkscape.org/) -->

<svg
   width="6.4920001mm"
   height="6.5580001mm"
   viewBox="0 0 6.4920001 6.5580001"
   version="1.1"
   id="svg1"
   xmlns:xlink="http://www.w3.org/1999/xlink"
   xmlns="http://www.w3.org/2000/svg"
   xmlns:svg="http://www.w3.org/2000/svg">
  <defs
     id="defs1">
    <linearGradient
       xlink:href="#linearGradient62"
       id="linearGradient63"
       x1="15.221219"
       y1="3.0744081"
       x2="15.282166"
       y2="9.5757389"
       gradientUnits="userSpaceOnUse"
       gradientTransform="translate(-11.993999,-2.9759154)" />
    <linearGradient
       id="linearGradient62">
      <stop
         style="stop-color:#9a78e8;stop-opacity:1;"
         offset="0"
         id="stop62" />
      <stop
         style="stop-color:#82a0f3;stop-opacity:1;"
         offset="1"
         id="stop63" />
    </linearGradient>
  </defs>
  <g
     id="layer1">
    <path
       style="fill:url(#linearGradient63);fill-opacity:1;stroke:#000000;stroke-width:0.2;stroke-linecap:round;stroke-linejoin:round;stroke-dasharray:none;stroke-opacity:0.508728"
       d="M 1.3567106,5.3832641 H 0.09993955 V 6.4581342 H 2.8284546 V 5.3253865 c 0,0 -1.298113,-0.3968749 -1.298113,-2.0918619 0,-1.694987 1.174089,-1.984375 1.174089,-1.984375 0,0 1.091406,-0.37207026 1.794206,0.4547526 0.702799,0.8268229 0.429948,1.9182292 0.429948,1.9182292 0,0 -0.07441,1.2650391 -1.265039,1.7115234 v 1.1244794 h 2.728515 V 5.3832641 h -1.273307 c 0,0 1.190625,-0.7937499 1.190625,-2.2985676 0,-1.5048177 -0.93431,-2.19108066 -0.93431,-2.19108066 0,0 -0.744141,-0.79375 -2.108398,-0.79375 -1.364258,0 -2.141472,0.7606771 -2.141472,0.7606771 0,0 -0.92604105,0.83509106 -0.92604105,2.11666656 0,1.2815755 0.562239,1.802474 0.562239,1.802474 0,0 0.223245,0.3059242 0.59531405,0.6035806 z"
       id="path133" />
  </g>
</svg>
